# xmcd
#
# Track frame offsets: 
#        182
#        15212
#        38505
#        58950
#        71235
#        90137
#        102537
#        123045
#        142200
#        153200
#        165900
#        184945
#        201637
#        218230
#        234735
#        256550
#
# Disc length: 3591 seconds
#
# Revision: 11
# Processed by: cddbd v1.5.2PL0 Copyright (c) Steve Scherf et al.
# Submitted via: ExactAudioCopyFreeDBPlugin 1.0
#
DISCID=d60e0510
DTITLE=Various Artist - Medias Affenstarke Italo Hits
DYEAR=1993
DGENRE=Noise
TTITLE0=Nino di Angelo - Ragazzina Rock
TTITLE1=Sergio Folino - Vamos a la playa
TTITLE2=Drupi - Piccola E Fragile
TTITLE3=Francesco Napoli - Marina
TTITLE4=Salvo - Muchachachada
TTITLE5=I Santo California - Soli io E te
TTITLE6=Raffaela Carra - Che Meraviglia Che Sei
TTITLE7=Alessandrio Canino - La ragazze al sole
TTITLE8=Fausto Leali - Ho Perduto
TTITLE9=Adriano Celentano - Buona Sera Signorina
TTITLE10=Mietta - L amore
TTITLE11=Francesco Napoli - Ciao Italia
TTITLE12=Milva - Per I Morti Di Reggio Emilia
TTITLE13=Alessandra Calabrese - Bolero
TTITLE14=Ricchi e Poveri - Musica Musica
TTITLE15=Evelyne - Melodie D estate
EXTD=YEAR: 1993 ID3G: 39
EXTT0=Nino D angelo
EXTT1=Sergio Folino\n
EXTT2=Drupi
EXTT3=Francesco Napoli
EXTT4=Salvo
EXTT5=I Santo California
EXTT6=Raffaela Carra
EXTT7=Alessandro Canino
EXTT8=Fausto Leali
EXTT9=Adriano Celentano
EXTT10=Mietta
EXTT11=Francesco Napoli
EXTT12=Milva
EXTT13=Alessandra Calabrese
EXTT14=Ricchi e Poveri\n
EXTT15=Evelyne
PLAYORDER=
